<?xml version="1.0" encoding="utf-8"?>
<!-- Generator: Adobe Illustrator 19.0.0, SVG Export Plug-In . SVG Version: 6.00 Build 0)  -->
<svg version="1.1" id="Layer_1" xmlns="http://www.w3.org/2000/svg" xmlns:xlink="http://www.w3.org/1999/xlink" x="0px" y="0px"
	 viewBox="0 0 70 70" style="enable-background:new 0 0 70 70;" xml:space="preserve">
<style type="text/css">
	.st0{fill:#93278F;}
	.st1{fill:#FFFFFF;}
</style>
<rect id="XMLID_258_" class="st0" width="70" height="70"/>
<path id="XMLID_256_" class="st1" d="M12.3,12.3H23v2.8l-9.7,9v1h10v1.2H12.1v-2.8l9.6-9v-1.1h-9.5V12.3z"/>
<path id="XMLID_254_" class="st1" d="M41.1,12.5L33.7,33l-1.2-0.4l2.2-6.2h-0.6l-5.4-13.9l1.2-0.4l5.2,13.4L40,12L41.1,12.5z"/>
<path id="XMLID_250_" class="st1" d="M57.5,28.9c0,3.1-1.8,4.5-5.1,4.5c-3.6,0-5.2-1-5.2-3.7c0-2,1.2-3.2,4.1-3.9l5-1v-1.8
	c-1.5,0.2-2.8,0.2-4.1,0.2c-3.7,0-5.5-1.4-5.5-5.6c0-4.5,1.7-5.9,6.1-5.9c2.3,0,4.7,0.6,4.7,0.6V28.9z M56.2,21.7v-8.4
	c-0.7-0.1-2.1-0.4-3.4-0.4c-3.9,0-5,0.9-5,4.7c0,3.2,1.1,4.3,4.3,4.3C53.4,22,54.6,22,56.2,21.7z M56.2,28.9V26
	c-1.1,0.2-3,0.6-4.6,0.9c-2.3,0.5-3.2,1.2-3.2,2.7c0,1.5,0.6,2.5,3.8,2.5C55.2,32.2,56.2,31.3,56.2,28.9z"/>
<path id="XMLID_248_" class="st1" d="M11.7,56.7h5.4v-20h1.2v20h5.4v1.2H11.7V56.7z"/>
<path id="XMLID_245_" class="st1" d="M39,55.6c-1.6,1.5-3.9,2.6-5.8,2.6c-2.8,0-4.4-1.8-4.4-3.9c0-2,1.5-3.9,4.2-3.9
	c2.3,0,4.1,0.4,5.7,0.8v-2.8c0-2.1-1.7-3.7-4.1-3.7c-1.4,0-2.6,0.1-4,0.5L30.2,44c0.9-0.3,2.5-0.6,4.4-0.6c3,0,5.3,2.1,5.3,4.9v6.3
	l3.9,2.6l-0.7,1L39,55.6z M38.7,54.2v-1.8c-1.9-0.5-3.6-0.8-5.7-0.8c-2,0-3,1.4-3,2.7c0,1.2,0.9,2.6,3.2,2.6
	C35.3,56.9,37.5,55.4,38.7,54.2z"/>
<path id="XMLID_239_" class="st1" d="M48.7,44.1c1.2-0.4,2.6-0.6,4.1-0.6c3.9,0,5.5,1.8,5.5,6.9c0,5.4-1.2,7.8-6.1,7.8
	c-1.5,0-3.2-0.1-4.7-0.7V36.6h1.2V44.1z M48.7,45.4v11.2c1,0.3,2.2,0.3,3.5,0.3c3.8,0,4.9-1.3,4.9-6.5c0-4.8-1.4-5.7-4.3-5.7
	C51.2,44.7,49.8,45.1,48.7,45.4z"/>
</svg>
